<?xml version="1.0" encoding="UTF-8"?>
<svg width="120px" height="80px" viewBox="0 0 120 80" version="1.1" xmlns="http://www.w3.org/2000/svg" xmlns:xlink="http://www.w3.org/1999/xlink">
    <title>activity_fill</title>
    <g id="f2e-week1-mobile" stroke="none" stroke-width="1" fill="none" fill-rule="evenodd">
        <g id="design-guideline" transform="translate(-651.000000, -1590.000000)" fill="#000000" fill-rule="nonzero">
            <g id="icon_activity_fill" transform="translate(651.000000, 1590.000000)">
                <g id="Group-9" transform="translate(60.500000, 40.500000) rotate(-15.000000) translate(-60.500000, -40.500000) translate(23.000000, 21.000000)">
                    <path d="M75,0 L75,8.29787234 C68.8211237,8.29787234 63.8121547,13.3132357 63.8121547,19.5 C63.8121547,25.6867643 68.8211237,30.7021277 75,30.7021277 L75,39 L1.13686838e-13,39 L1.13686838e-13,30.7021277 C6.17887634,30.7021277 11.1878453,25.6867643 11.1878453,19.5 C11.1878453,13.3132357 6.17887634,8.29787234 1.13686838e-13,8.29787234 L1.13686838e-13,0 L75,0 Z M57.2429392,34.7853972 L56.2429392,34.7853972 L56.2429392,37.6742861 L57.2429392,37.6742861 L57.2429392,34.7853972 Z M57.2429392,30.4520639 L56.2429392,30.4520639 L56.2429392,33.3409527 L57.2429392,33.3409527 L57.2429392,30.4520639 Z M29.3057598,9.10536982 L25.8084133,16.1718096 L17.9951829,17.3036754 L23.6487685,22.798314 L22.3130915,30.5611476 L29.3058582,26.8959437 L36.2980675,30.5611476 L34.9629478,22.798314 L40.6159761,17.3036754 L32.803303,16.1718096 L29.3057598,9.10536982 Z M57.2429392,26.1187305 L56.2429392,26.1187305 L56.2429392,29.0076194 L57.2429392,29.0076194 L57.2429392,26.1187305 Z M38.4622787,7.46231427 L35.4599393,13.5287457 L32.5942499,13.9435365 L33.3078316,15.4948698 L41.9806281,16.8797473 L35.6169662,23.0106754 L35.8596345,24.0914809 L38.4631858,22.7388292 L44.4662451,25.885842 L43.3196627,19.2199639 L48.1747787,14.5007309 L41.4649575,13.5287457 L38.4622787,7.46231427 Z M57.2429392,21.7853972 L56.2429392,21.7853972 L56.2429392,24.6742861 L57.2429392,24.6742861 L57.2429392,21.7853972 Z M57.2429392,17.4520639 L56.2429392,17.4520639 L56.2429392,20.3409527 L57.2429392,20.3409527 L57.2429392,17.4520639 Z M57.2429392,13.1187305 L56.2429392,13.1187305 L56.2429392,16.0076194 L57.2429392,16.0076194 L57.2429392,13.1187305 Z M57.2429392,8.78539719 L56.2429392,8.78539719 L56.2429392,11.6742861 L57.2429392,11.6742861 L57.2429392,8.78539719 Z M57.2429392,4.45206385 L56.2429392,4.45206385 L56.2429392,7.34095274 L57.2429392,7.34095274 L57.2429392,4.45206385 Z M57.2429392,0.118730518 L56.2429392,0.118730518 L56.2429392,3.00761941 L57.2429392,3.00761941 L57.2429392,0.118730518 Z" id="Combined-Shape"></path>
                </g>
            </g>
        </g>
    </g>
</svg>