<?xml version="1.0" encoding="utf-8"?>
<!-- Generator: Adobe Illustrator 25.2.1, SVG Export Plug-In . SVG Version: 6.00 Build 0)  -->
<svg version="1.1" id="圖層_1" xmlns="http://www.w3.org/2000/svg" xmlns:xlink="http://www.w3.org/1999/xlink" x="0px" y="0px"
	 viewBox="0 0 120 80" style="enable-background:new 0 0 120 80;" xml:space="preserve">
<style type="text/css">
	.st0{fill:#FFFFFF;}
</style>
<g id="f2e-week1-mobile">
	<g id="design-guideline" transform="translate(-202.000000, -1436.000000)">
		<g id="icon_cuisines" transform="translate(202.000000, 1436.000000)">
			<g id="Group-7" transform="translate(17.000000, 16.000000)">
				<path id="Combined-Shape" class="st0" d="M46.5-65.4c50.5,0,91.4,40.9,91.4,91.4S97,117.4,46.5,117.4S-44.9,76.5-44.9,26
					S-4-65.4,46.5-65.4z M46.5-62.7c-49,0-88.7,39.7-88.7,88.7s39.7,88.7,88.7,88.7S135.2,75,135.2,26S95.5-62.7,46.5-62.7z
					 M194.2-58.4l0,107.2v61.5h-14.9l0-58.8l-19.8,0c-0.3-4.4-0.5-8.8-0.5-13.3C159-3.9,173.3-40.5,194.2-58.4z M-74-58.4
					c2.5,0,4.5,2.2,4.5,4.8v47.3c0,9-5.4,16.6-12.9,19.4l0,97.2h-14.2l0-97.8c-6.8-3.2-11.6-10.4-11.6-18.9v-47.3
					c0-2.7,2-4.8,4.5-4.8c2.5,0,4.5,2.2,4.5,4.8v35h6.4v-35c0-2.7,2-4.8,4.5-4.8c2.5,0,4.5,2.2,4.5,4.8v35h5.2v-35
					C-78.5-56.2-76.5-58.4-74-58.4z M191.5,51.6H182v56.1h9.5V51.6z M-74-55.6c-1,0-1.8,0.8-1.9,1.9l0,0.2v37.7h-10.3v-37.7
					c0-1.1-0.9-2.1-1.9-2.1c-1,0-1.8,0.8-1.9,1.9l0,0.2v37.7h-11.6v-37.7c0-1.1-0.9-2.1-1.9-2.1c-1,0-1.8,0.8-1.9,1.9l0,0.2v47.3
					c0,7,3.8,13.3,9.7,16.2l0.4,0.2l1.5,0.7l0,96.8h9l0-96.4l1.7-0.6c6.5-2.5,11-8.9,11.2-16.4l0-0.4v-47.3
					C-72.1-54.7-73-55.6-74-55.6z M46.7-36.5c34.7,0,62.7,28.1,62.7,62.7S81.4,88.9,46.7,88.9S-16,60.9-16,26.2S12.1-36.5,46.7-36.5
					z M46.7-33.8c-33.1,0-60,26.9-60,60s26.9,60,60,60s60-26.9,60-60S79.9-33.8,46.7-33.8z M191.5-52.1l-0.4,0.4
					c-18,19-29.4,52.7-29.4,89.9c0,3.2,0.1,6.3,0.2,9.4l0.1,1.2h29.4L191.5-52.1z"/>
			</g>
		</g>
	</g>
</g>
</svg>
