<?xml version="1.0" encoding="UTF-8"?>
<svg width="40px" height="40px" viewBox="0 0 40 40" version="1.1" xmlns="http://www.w3.org/2000/svg" xmlns:xlink="http://www.w3.org/1999/xlink">
    <title>first page</title>
    <g id="Page-1" stroke="none" stroke-width="1" fill="none" fill-rule="evenodd">
        <g id="design-guideline" transform="translate(-451.000000, -1675.000000)" fill="#000000" fill-rule="nonzero">
            <g id="icon_first-page" transform="translate(451.000000, 1675.000000)">
                <g id="Group-5-Copy" transform="translate(20.331941, 19.573134) scale(-1, 1) translate(-20.331941, -19.573134) translate(13.000000, 11.000000)">
                    <path d="M0.123456466,0.670912635 C0.284945709,0.486056524 0.552460854,0.448679099 0.755974119,0.570251617 L0.82895942,0.623314495 L9.78414438,8.44651291 C9.98686745,8.62361063 10.0093922,8.92349061 9.85171873,9.12787327 L9.78414438,9.19961401 L0.82895942,17.0228124 C0.620996295,17.2044878 0.305131864,17.1831774 0.123456466,16.9752143 C-0.0380327758,16.7903582 -0.0391381675,16.5202467 0.108669033,16.3349077 L0.171054607,16.2697113 L8.69500701,8.823 L0.171054607,1.37641559 C-0.013801504,1.21492635 -0.0511789292,0.947411201 0.0703935888,0.743897936 L0.123456466,0.670912635 Z" id="Path-2"></path>
                    <path d="M14.1638814,0 C14.4093413,0 14.6134898,0.176875161 14.6558257,0.410124368 L14.6638814,0.5 L14.6638814,16.5 C14.6638814,16.7761424 14.4400238,17 14.1638814,17 C13.9184215,17 13.714273,16.8231248 13.6719371,16.5898756 L13.6638814,16.5 L13.6638814,0.5 C13.6638814,0.223857625 13.887739,0 14.1638814,0 Z" id="Line-4"></path>
                </g>
            </g>
        </g>
    </g>
</svg>