<?xml version="1.0" encoding="UTF-8"?>
<svg width="120px" height="80px" viewBox="0 0 120 80" version="1.1" xmlns="http://www.w3.org/2000/svg" xmlns:xlink="http://www.w3.org/1999/xlink">
    <title>hotel_fill</title>
    <g id="f2e-week1-mobile" stroke="none" stroke-width="1" fill="none" fill-rule="evenodd">
        <g id="design-guideline" transform="translate(-531.000000, -1590.000000)" fill="#000000" fill-rule="nonzero">
            <g id="icon_hotel_fill" transform="translate(531.000000, 1590.000000)">
                <g id="Group-2" transform="translate(16.000000, 16.000000)">
                    <path d="M72.5614035,0 C76.8246542,0 80.2807018,3.49281401 80.2807018,7.80141844 L80.2807018,23.0141844 C82.4123271,23.0141844 84.1403509,24.7605914 84.1403509,26.9148936 L84.14,42.907 L88,42.9078014 L88,47.9787234 L84.14,47.978 L84.1403509,55 L76.4210526,55 L76.421,47.978 L11.578,47.978 L11.5789474,55 L3.85964912,55 L3.859,47.978 L0,47.9787234 L0,42.9078014 L3.859,42.907 L3.85964912,26.9148936 C3.85964912,24.7605914 5.5876729,23.0141844 7.71929825,23.0141844 L8.105,23.014 L8.10526316,7.80141844 C8.10526316,3.49281401 11.5613107,0 15.8245614,0 L72.5614035,0 Z M80.2807018,23.7943262 L7.71929825,23.7943262 C6.04617344,23.7943262 4.68386065,25.1392275 4.63304825,26.817696 L4.63157895,26.9148936 L4.63157895,42.9078014 L83.3684211,42.9078014 L83.3684211,26.9148936 C83.3684211,25.2239696 82.0376767,23.8471641 80.3768762,23.7958112 L80.2807018,23.7943262 Z M28.2745111,7.33909947 L28.2189362,7.39174547 L18.1209552,17.5971518 C17.6868566,18.0358685 17.6694926,18.7362654 18.0688629,19.195916 L18.1209547,19.2520821 L21.8432982,23.0137943 L36.2312982,23.0137943 L39.9544277,19.2520826 C40.3885263,18.813366 40.4058902,18.1129691 40.0065195,17.653318 L39.9544277,17.5971518 L29.8564467,7.39174547 C29.4223481,6.95302882 28.7293238,6.93548015 28.2745111,7.33909947 Z M59.1242744,7.31137798 L59.0686995,7.36402398 L48.9707185,17.5694304 C48.5366199,18.008147 48.5192559,18.7085439 48.9186262,19.1681945 L48.970718,19.2243606 L52.6930877,22.9860993 L67.0810877,22.9860993 L70.804191,19.2243611 C71.2382896,18.7856445 71.2556535,18.0852476 70.8562828,17.6255965 L70.804191,17.5694304 L60.70621,7.36402398 C60.2721114,6.92530733 59.5790871,6.90775866 59.1242744,7.31137798 Z" id="Combined-Shape"></path>
                </g>
            </g>
        </g>
    </g>
</svg>