<?xml version="1.0" encoding="UTF-8"?>
<svg width="120px" height="80px" viewBox="0 0 120 80" version="1.1" xmlns="http://www.w3.org/2000/svg" xmlns:xlink="http://www.w3.org/1999/xlink">
    <title>visit-fill</title>
    <g id="f2e-week1-mobile" stroke="none" stroke-width="1" fill="none" fill-rule="evenodd">
        <g id="design-guideline" transform="translate(-291.000000, -1590.000000)" fill="#000000" fill-rule="nonzero">
            <g id="icon_-visit-fill" transform="translate(291.000000, 1590.000000)">
                <g id="Group" transform="translate(16.000000, 10.000000)">
                    <path d="M43.4,0 C51.3531547,0 57.8,6.60801648 57.8,14.75 C57.8,16.9917101 57.2228204,19.5087698 56.1568884,22.2401825 L57.8099137,22.004018 L57.9116741,22.0025628 L86.4452074,25.2481769 C86.6220612,25.2682935 86.7610589,25.4017489 86.793045,25.5710753 L86.8,25.645614 L86.8,58.7508772 C86.8,58.9631626 86.6357203,59.1334025 86.4325567,59.149656 L86.3547926,59.1483143 L57.9211391,55.9015092 L29.6934784,59.7964979 L29.5859907,59.7964979 L0.347184751,55.901761 C0.173282984,55.8785965 0.0378959843,55.7459093 0.00676644945,55.5787799 L0,55.5052632 L0,22.4 C0,22.1843258 0.169303544,22.0128 0.375738798,22.0006213 L0.454634418,22.0037487 L29.637,26.027 L32.1746165,25.6638128 C30.1400278,21.5948939 29,17.9005159 29,14.75 C29,6.60801648 35.4468453,0 43.4,0 Z M0.8,22.859 L0.799,22.86 L29.215,58.939 L29.5,58.9776213 L29.5,26.8156213 L0.8,22.859 Z M57.5,22.8556213 L55.8090978,23.0979859 C54.6803729,25.7834148 53.1026266,28.663612 51.1559728,31.6833151 C49.6652662,33.9957406 48.0456737,36.2487094 46.3937539,38.370271 L45.6793032,39.2768405 C45.4461896,39.5690331 45.2183706,39.8510357 44.996619,40.1222696 L44.3684297,40.8814891 L43.8693816,41.4695075 L43.7001073,41.6644534 C43.560757,41.8225911 43.3276619,41.8423583 43.1648754,41.723755 L43.081903,41.6439435 L42.8188864,41.339331 L42.2855182,40.7066463 L42.1313611,40.5209716 C41.8081249,40.1304907 41.4703671,39.7151294 41.1206968,39.2768405 L40.4062461,38.370271 C38.7543263,36.2487094 37.1347338,33.9957406 35.6440272,31.6833151 C34.477773,29.8741893 33.4439305,28.1151363 32.5597272,26.4180396 L30.299,26.7406213 L30.299,58.9046213 L57.5,55.1646213 L57.5,22.8556213 Z M58.299,22.881 L58.299,55.1516213 L86,58.302 L58.299,22.881 Z M43.4,9 C40.4190861,9 38,11.4190861 38,14.4 C38,17.3809139 40.4190861,19.8 43.4,19.8 C46.3809139,19.8 48.8,17.3809139 48.8,14.4 C48.8,11.4190861 46.3809139,9 43.4,9 Z" id="Combined-Shape"></path>
                </g>
            </g>
        </g>
    </g>
</svg>