<?xml version="1.0" encoding="UTF-8"?>
<svg width="120px" height="80px" viewBox="0 0 120 80" version="1.1" xmlns="http://www.w3.org/2000/svg" xmlns:xlink="http://www.w3.org/1999/xlink">
    <title>activity</title>
    <g id="f2e-week1-mobile" stroke="none" stroke-width="1" fill="none" fill-rule="evenodd">
        <g id="design-guideline_mobile" transform="translate(-442.000000, -1436.000000)" fill="#000000" fill-rule="nonzero">
            <g id="icon_activity" transform="translate(442.000000, 1436.000000)">
                <g id="Group-9" transform="translate(60.500000, 40.500000) rotate(-15.000000) translate(-60.500000, -40.500000) translate(23.000000, 21.000000)">
                    <path d="M75,3.41060513e-13 L75,8.29787234 C68.8211237,8.29787234 63.8121547,13.3132357 63.8121547,19.5 C63.8121547,25.6867643 68.8211237,30.7021277 75,30.7021277 L75,39 L0,39 L0,30.7021277 C6.17887634,30.7021277 11.1878453,25.6867643 11.1878453,19.5 C11.1878453,13.3132357 6.17887634,8.29787234 0,8.29787234 L0,3.41060513e-13 L75,3.41060513e-13 Z M56.242,0.722 L0.720793269,0.722222222 L0.720793269,7.59705556 L0.783016317,7.60101391 C6.93043481,8.00053424 11.8064863,13.0705034 11.9074037,19.3028081 L11.9089992,19.5 C11.9089992,25.8222429 6.99514448,30.9952603 0.783016317,31.3989861 L0.720793269,31.4025833 L0.720793269,38.2777778 L74.2784856,38.2777778 L74.2784856,31.4025833 L74.2169837,31.3989861 C68.0695652,30.9994658 63.1935137,25.9294966 63.0925963,19.6971919 L63.0910008,19.5 C63.0910008,13.1777571 68.0048555,8.00473972 74.2169837,7.60101391 L74.2784856,7.59705556 L74.2784856,0.722222222 L57.242,0.722 L57.2429392,3.00761941 L56.2429392,3.00761941 L56.242,0.722 Z M57.2429392,34.7853972 L57.2429392,37.6742861 L56.2429392,37.6742861 L56.2429392,34.7853972 L57.2429392,34.7853972 Z M57.2429392,30.4520639 L57.2429392,33.3409527 L56.2429392,33.3409527 L56.2429392,30.4520639 L57.2429392,30.4520639 Z M38.4624484,5.83636291 L41.9429278,12.8681476 L49.729425,13.9964382 L44.0948508,19.4728698 L45.4246504,27.2033128 L38.4615576,23.5530643 L36.0411249,24.8103629 L37.2567006,31.879074 L29.3058582,27.711124 L21.3550157,31.879074 L22.8734915,23.0512142 L16.4411249,16.7992892 L25.3304369,15.5113219 L29.3058582,7.47946974 L32.1741249,13.2743629 L34.9816297,12.8681476 L38.4624484,5.83636291 Z M29.3057598,9.10536982 L25.8084133,16.1718096 L17.9951829,17.3036754 L23.6487685,22.798314 L22.3130915,30.5611476 L29.3058582,26.8959437 L36.2980675,30.5611476 L35.3681249,25.1593629 L35.3612697,25.1642124 L34.8246316,22.7722692 L40.4371585,17.364342 L34.5571249,16.4253629 L32.803303,16.1718096 L29.3057598,9.10536982 Z M57.2429392,26.1187305 L57.2429392,29.0076194 L56.2429392,29.0076194 L56.2429392,26.1187305 L57.2429392,26.1187305 Z M38.4622787,7.46231427 L35.4599393,13.5287457 L32.5942499,13.9435365 L33.3078316,15.4948698 L34.6431249,15.7073629 L42.1705914,16.7992892 L35.7382248,23.0512142 L35.9121249,24.0633629 L38.4631858,22.7388292 L44.4662451,25.885842 L43.3196627,19.2199639 L48.1747787,14.5007309 L41.4649575,13.5287457 L38.4622787,7.46231427 Z M57.2429392,21.7853972 L57.2429392,24.6742861 L56.2429392,24.6742861 L56.2429392,21.7853972 L57.2429392,21.7853972 Z M57.2429392,17.4520639 L57.2429392,20.3409527 L56.2429392,20.3409527 L56.2429392,17.4520639 L57.2429392,17.4520639 Z M57.2429392,13.1187305 L57.2429392,16.0076194 L56.2429392,16.0076194 L56.2429392,13.1187305 L57.2429392,13.1187305 Z M57.2429392,8.78539719 L57.2429392,11.6742861 L56.2429392,11.6742861 L56.2429392,8.78539719 L57.2429392,8.78539719 Z M57.2429392,4.45206385 L57.2429392,7.34095274 L56.2429392,7.34095274 L56.2429392,4.45206385 L57.2429392,4.45206385 Z" id="Combined-Shape"></path>
                </g>
            </g>
        </g>
    </g>
</svg>