<?xml version="1.0" encoding="UTF-8"?>
<svg width="40px" height="40px" viewBox="0 0 40 40" version="1.1" xmlns="http://www.w3.org/2000/svg" xmlns:xlink="http://www.w3.org/1999/xlink">
    <title>arrow-left_fill</title>
    <g id="f2e-week1-desktop" stroke="none" stroke-width="1" fill="none" fill-rule="evenodd">
        <g id="design-guideline_desktop" transform="translate(-761.000000, -1675.000000)" fill-rule="nonzero">
            <g id="icon_arrow-left_fill" transform="translate(781.000000, 1695.000000) scale(-1, 1) translate(-781.000000, -1695.000000) translate(761.000000, 1675.000000)">
                <path d="M20,0 C31.045695,0 40,8.954305 40,20 C40,31.045695 31.045695,40 20,40 C8.954305,40 0,31.045695 0,20 C0,8.954305 8.954305,0 20,0 Z" id="Oval" fill-opacity="0.5" fill="#000000"></path>
                <path d="M20,0 C31.045695,0 40,8.954305 40,20 C40,31.045695 31.045695,40 20,40 C8.954305,40 0,31.045695 0,20 C0,8.954305 8.954305,0 20,0 Z M20,1 C9.50658975,1 1,9.50658975 1,20 C1,30.4934102 9.50658975,39 20,39 C30.4934102,39 39,30.4934102 39,20 C39,9.50658975 30.4934102,1 20,1 Z" id="Oval" fill="#FFAB47"></path>
                <path d="M15.7980003,11.8618731 C15.9341569,11.6576382 16.1945672,11.585889 16.412126,11.6800468 L16.4913755,11.7231981 L28.4913755,19.7231981 C28.7612542,19.9031172 28.7857886,20.2799927 28.5649788,20.4957221 L28.4913755,20.5552484 L16.4913755,28.5552484 C16.2616112,28.7084246 15.9511765,28.6463377 15.7980003,28.4165733 C15.6618436,28.2123384 15.6957715,27.9443639 15.8663628,27.7797548 L15.9366753,27.7231981 L27.312,20.139 L15.9366753,12.5552484 C15.7324404,12.4190917 15.6606912,12.1586815 15.754849,11.9411227 L15.7980003,11.8618731 Z" id="Path" fill="#FFAB47"></path>
            </g>
        </g>
    </g>
</svg>