<?xml version="1.0" encoding="UTF-8"?>
<svg width="120px" height="80px" viewBox="0 0 120 80" version="1.1" xmlns="http://www.w3.org/2000/svg" xmlns:xlink="http://www.w3.org/1999/xlink">
    <title>cuisines</title>
    <g id="f2e-week1-mobile" stroke="none" stroke-width="1" fill="none" fill-rule="evenodd">
        <g id="design-guideline_mobile" transform="translate(-202.000000, -1436.000000)" fill="#000000" fill-rule="nonzero">
            <g id="icon_cuisines" transform="translate(202.000000, 1436.000000)">
                <g id="Group-7" transform="translate(17.000000, 16.000000)">
                    <path d="M44,0 C58.3594035,0 70,11.6405965 70,26 C70,40.3594035 58.3594035,52 44,52 C29.6405965,52 18,40.3594035 18,26 C18,11.6405965 29.6405965,0 44,0 Z M44,0.781954887 C30.0724583,0.781954887 18.7819549,12.0724583 18.7819549,26 C18.7819549,39.9275417 30.0724583,51.2180451 44,51.2180451 C57.9275417,51.2180451 69.2180451,39.9275417 69.2180451,26 C69.2180451,12.0724583 57.9275417,0.781954887 44,0.781954887 Z M85.9998263,2 L86,32.501061 L86,50 L81.7692308,50 L81.769,33.278 L76.1370049,33.2788581 C76.0465659,32.0359426 76,30.7701393 76,29.4859905 C76,17.4871079 80.0655487,7.08992567 85.9998263,2 Z M9.71666667,2 C10.4254321,2 11,2.61151351 11,3.36585366 L11,16.8292683 C11,19.3778295 9.46970961,21.5459897 7.33373167,22.3496927 L7.33333333,50 L3.3,50 L3.30004137,22.1958705 C1.35752401,21.2925948 0,19.2296588 0,16.8292683 L0,3.36585366 C0,2.61151351 0.574567904,2 1.28333333,2 C1.99209876,2 2.56666667,2.61151351 2.56666667,3.36585366 L2.56666667,13.3170732 L4.4,13.3170732 L4.4,3.36585366 C4.4,2.61151351 4.9745679,2 5.68333333,2 C6.39209876,2 6.96666667,2.61151351 6.96666667,3.36585366 L6.96666667,13.3170732 L8.43333333,13.3170732 L8.43333333,3.36585366 C8.43333333,2.61151351 9.00790124,2 9.71666667,2 Z M85.2307692,33.2787701 L82.5384615,33.2787701 L82.5384615,49.2222479 L85.2307692,49.2222479 L85.2307692,33.2787701 Z M9.71666667,2.7804878 C9.43077809,2.7804878 9.19583548,3.01263925 9.16918441,3.30947902 L9.16666667,3.36585366 L9.16666667,14.097561 L6.23333333,14.097561 L6.23333333,3.36585366 C6.23333333,3.04256502 5.98708995,2.7804878 5.68333333,2.7804878 C5.39744476,2.7804878 5.16250215,3.01263925 5.13585108,3.30947902 L5.13333333,3.36585366 L5.13333333,14.097561 L1.83333333,14.097561 L1.83333333,3.36585366 C1.83333333,3.04256502 1.58708995,2.7804878 1.28333333,2.7804878 C0.997444757,2.7804878 0.762502151,3.01263925 0.735851079,3.30947902 L0.733333333,3.36585366 L0.733333333,16.8292683 C0.733333333,18.822974 1.82365407,20.60374 3.48671594,21.4292763 L3.59364167,21.4806657 L4.03337547,21.6851431 L4.03296667,49.2195122 L6.6,49.2195122 L6.60040628,21.7977926 L7.08929769,21.6138378 C8.94166581,20.9168485 10.2168802,19.0694028 10.2652418,16.9540058 L10.2666667,16.8292683 L10.2666667,3.36585366 C10.2666667,3.04256502 10.0204233,2.7804878 9.71666667,2.7804878 Z M44.0566802,8.21052632 C53.9128388,8.21052632 61.902834,16.2005216 61.902834,26.0566802 C61.902834,35.9128388 53.9128388,43.902834 44.0566802,43.902834 C34.2005216,43.902834 26.2105263,35.9128388 26.2105263,26.0566802 C26.2105263,16.2005216 34.2005216,8.21052632 44.0566802,8.21052632 Z M44.0566802,8.9924812 C34.6323833,8.9924812 26.9924812,16.6323833 26.9924812,26.0566802 C26.9924812,35.480977 34.6323833,43.1208791 44.0566802,43.1208791 C53.480977,43.1208791 61.1208791,35.480977 61.1208791,26.0566802 C61.1208791,16.6323833 53.480977,8.9924812 44.0566802,8.9924812 Z M85.2303846,3.79305795 L85.1232839,3.90552597 C80.0142455,9.30848107 76.7692308,18.8957089 76.7692308,29.4859905 C76.7692308,30.383428 76.7923149,31.2759686 76.8381905,32.1619221 L76.8573077,32.5010395 L85.2307692,32.5010395 L85.2303846,3.79305795 Z" id="Combined-Shape"></path>
                </g>
            </g>
        </g>
    </g>
</svg>