<?xml version="1.0" encoding="UTF-8"?>
<svg width="120px" height="80px" viewBox="0 0 120 80" version="1.1" xmlns="http://www.w3.org/2000/svg" xmlns:xlink="http://www.w3.org/1999/xlink">
    <title>cuisines_fill</title>
    <g id="f2e-week1-mobile" stroke="none" stroke-width="1" fill="none" fill-rule="evenodd">
        <g id="design-guideline_mobile" transform="translate(-202.000000, -1516.000000)" fill="#000000" fill-rule="nonzero">
            <g id="icon_cuisines_fill" transform="translate(202.000000, 1516.000000)">
                <g id="Group-7" transform="translate(17.000000, 16.000000)">
                    <path d="M44,0 C58.3594035,0 70,11.6405965 70,26 C70,40.3594035 58.3594035,52 44,52 C29.6405965,52 18,40.3594035 18,26 C18,11.6405965 29.6405965,0 44,0 Z M85.9998263,2 L86,32.501061 L86,50 L81.7692308,50 L81.769,33.278 L76.1370049,33.2788581 C76.0465659,32.0359426 76,30.7701393 76,29.4859905 C76,17.4871079 80.0655487,7.08992567 85.9998263,2 Z M9.71666667,2 C10.4254321,2 11,2.61151351 11,3.36585366 L11,16.8292683 C11,19.3778295 9.46970961,21.5459897 7.33373167,22.3496927 L7.33333333,50 L3.3,50 L3.30004137,22.1958705 C1.35752401,21.2925948 0,19.2296588 0,16.8292683 L0,3.36585366 C0,2.61151351 0.574567904,2 1.28333333,2 C1.99209876,2 2.56666667,2.61151351 2.56666667,3.36585366 L2.56666667,13.3170732 L4.4,13.3170732 L4.4,3.36585366 C4.4,2.61151351 4.9745679,2 5.68333333,2 C6.39209876,2 6.96666667,2.61151351 6.96666667,3.36585366 L6.96666667,13.3170732 L8.43333333,13.3170732 L8.43333333,3.36585366 C8.43333333,2.61151351 9.00790124,2 9.71666667,2 Z M44.0566802,8.21052632 C34.2005216,8.21052632 26.2105263,16.2005216 26.2105263,26.0566802 C26.2105263,35.9128388 34.2005216,43.902834 44.0566802,43.902834 C53.9128388,43.902834 61.902834,35.9128388 61.902834,26.0566802 C61.902834,16.2005216 53.9128388,8.21052632 44.0566802,8.21052632 Z M44.0566802,10.0566802 C52.8932362,10.0566802 60.0566802,17.2201242 60.0566802,26.0566802 C60.0566802,34.8932362 52.8932362,42.0566802 44.0566802,42.0566802 C35.2201242,42.0566802 28.0566802,34.8932362 28.0566802,26.0566802 C28.0566802,17.2201242 35.2201242,10.0566802 44.0566802,10.0566802 Z" id="Combined-Shape"></path>
                </g>
            </g>
        </g>
    </g>
</svg>