<?xml version="1.0" encoding="UTF-8"?>
<svg width="40px" height="40px" viewBox="0 0 40 40" version="1.1" xmlns="http://www.w3.org/2000/svg" xmlns:xlink="http://www.w3.org/1999/xlink">
    <title>more</title>
    <g id="f2e-week1-desktop" stroke="none" stroke-width="1" fill="none" fill-rule="evenodd">
        <g id="design-guideline_desktop" transform="translate(-611.000000, -1675.000000)" fill="#000000" fill-rule="nonzero">
            <g id="icon_more" transform="translate(611.000000, 1675.000000)">
                <g id="Group-13" transform="translate(9.500000, 12.499960)">
                    <path d="M0.5,15.0000405 C0.223857625,15.0000405 0,14.7761828 0,14.5000405 C0,14.2545806 0.176875161,14.0504321 0.410124368,14.0080961 L0.5,14.0000405 L16.533,14.0000405 L7.17274645,0.789099793 C7.03084151,0.588816131 7.05714123,0.319985795 7.22298635,0.150595937 L7.29166348,0.0920641121 C7.49194714,-0.0498408276 7.76077748,-0.0235411057 7.93016734,0.142304009 L7.98869916,0.210981142 L17.758,14 L20.533,14.0000405 L11.1727465,0.789099793 C11.0308415,0.588816131 11.0571412,0.319985795 11.2229863,0.150595937 L11.2916635,0.0920641121 C11.4919471,-0.0498408276 11.7607775,-0.0235411057 11.9301673,0.142304009 L11.9886992,0.210981142 L21.9079764,14.2109811 C22.1258258,14.5184523 21.9372309,14.935268 21.584262,14.9932443 L21.5,15.0000405 L0.5,15.0000405 Z" id="Combined-Shape"></path>
                </g>
            </g>
        </g>
    </g>
</svg>