<?xml version="1.0" encoding="UTF-8"?>
<svg width="40px" height="40px" viewBox="0 0 40 40" version="1.1" xmlns="http://www.w3.org/2000/svg" xmlns:xlink="http://www.w3.org/1999/xlink">
    <title>next page</title>
    <g id="f2e-week1-desktop" stroke="none" stroke-width="1" fill="none" fill-rule="evenodd">
        <g id="design-guideline_desktop" transform="translate(-531.000000, -1675.000000)" fill="#000000" fill-rule="nonzero">
            <g id="icon_next-page" transform="translate(551.000000, 1695.000000) scale(-1, 1) translate(-551.000000, -1695.000000) translate(531.000000, 1675.000000)">
                <path d="M15.6234495,11.6710476 C15.7849387,11.4861915 16.0524538,11.4488141 16.2559671,11.5703866 L16.3289524,11.6234495 L25.2841374,19.4466479 C25.4868604,19.6237456 25.5093852,19.9236256 25.3517117,20.1280082 L25.2841374,20.199749 L16.3289524,28.0229474 C16.1209893,28.2046228 15.8051249,28.1833124 15.6234495,27.9753492 C15.4619602,27.7904931 15.4608548,27.5203817 15.608662,27.3350426 L15.6710476,27.2698463 L24.195,19.823 L15.6710476,12.3765505 C15.4861915,12.2150613 15.4488141,11.9475462 15.5703866,11.7440329 L15.6234495,11.6710476 Z" id="Path-2-Copy-2" transform="translate(20.477589, 19.823198) scale(-1, 1) translate(-20.477589, -19.823198) "></path>
            </g>
        </g>
    </g>
</svg>